<svg width="512" height="512" xmlns="http://www.w3.org/2000/svg">

 <g>
  <title>background</title>
  <rect fill="none" id="canvas_background" height="402" width="582" y="-1" x="-1"/>
 </g>
 <g>
  <title>Layer 1</title>
  <path fill="#ffffff" id="svg_2" d="m116.13,425.658c-4.971,0 -9,4.029 -9,9l0,22c0,4.971 4.029,9 9,9l44.537,0l44.666,0l101.334,0l44.666,0l44.537,0c4.971,0 9,-4.029 9,-9l0,-76.861c0,-14.368 -5.083,-27.568 -13.538,-37.908l0,-75.563c0,-4.971 -4.029,-9 -9,-9l-41.508,0c5.332,-10.412 8.36,-22.189 8.36,-34.669l0,-31.297c33.599,-39.771 42.343,-78.959 23.912,-107.884c-10.658,-16.726 -29.233,-28.194 -53.719,-33.165c-24.246,-4.924 -52.729,-3.01 -82.359,5.535c-60.942,17.571 -80.361,4.259 -82.879,-2.611c-0.643,-4.391 -4.347,-7.281 -8.811,-7.293c-0.008,0 -0.015,0 -0.022,0c-4.51,0 -8.258,3.737 -8.854,8.21c-5.978,44.841 18.005,76.354 26.36,85.798l0,82.706c0,12.479 3.028,24.257 8.36,34.669l-41.508,0c-4.971,0 -9,4.029 -9,9l0,75.565c-8.454,10.34 -13.536,23.54 -13.536,37.906l0,12.361c0,4.971 4.029,9 9,9s9,-4.029 9,-9l0,-12.361c0,-17.696 11.011,-32.859 26.537,-39.026l0,106.888l-26.535,0l0,-13c0,-4.97 -4.029,-9 -9,-9zm112.076,-87.844l55.587,0l13.874,0l0,109.844l-83.334,0l0,-109.844l13.873,0zm-47.393,-115.158l0,-77.254l150.371,0l0,77.254c0,30.279 -23.188,55.239 -52.737,58.072l-44.896,0c-29.55,-2.832 -52.738,-27.792 -52.738,-58.072zm56.393,76.298c0.652,0.017 1.3,0.05 1.956,0.05l33.675,0c0.656,0 1.304,-0.033 1.956,-0.05l0,20.86l-37.587,0l0,-20.86zm78.461,148.704l0,-109.844l26.666,0l0,109.844l-26.666,0zm71.203,0l-26.537,0l0,-106.887c15.526,6.167 26.537,21.33 26.537,39.026l0,67.861zm-13.538,-172.333l0,51.676c-5.552,-3.003 -11.632,-5.141 -18.056,-6.268c-1.192,-0.583 -2.527,-0.919 -3.943,-0.919l-6.445,0l-38.221,0l-13.874,0l0,-23.474c13.632,-3.696 25.753,-11.082 35.236,-21.016l45.303,0l0,0.001zm-131.326,-202.183c52.123,-15.032 98.707,-6.99 115.91,20.008c11.292,17.72 7.99,41.792 -8.731,68.063l0,-24.81c0,-4.971 -4.029,-9 -9,-9l-164.426,0c-5.554,-6.451 -19.335,-24.845 -21.844,-50.999c18.666,9.307 48.273,8.217 88.091,-3.262zm-58.037,202.183c9.484,9.934 21.605,17.319 35.237,21.016l0,23.474l-13.873,0l-38.221,0l-6.445,0c-1.416,0 -2.751,0.336 -3.943,0.919c-6.425,1.127 -12.506,3.266 -18.058,6.27l0,-51.678l45.303,0l0,-0.001zm-14.302,62.489l26.666,0l0,109.844l-26.666,0l0,-109.844z"/>
 </g>
</svg>