<svg width="800" height="800" xmlns="http://www.w3.org/2000/svg">

 <g>
  <title>background</title>
  <rect fill="none" id="canvas_background" height="402" width="582" y="-1" x="-1"/>
 </g>
 <g>
  <title>Layer 1</title>
  <path fill="#ffffff" id="svg_2" d="m573.209,268.504l6.092,2.619c2.576,1.108 5.254,1.631 7.891,1.631c7.75,0 15.127,-4.533 18.383,-12.104c4.363,-10.147 -0.326,-21.911 -10.473,-26.273l-6.092,-2.62c-10.148,-4.363 -21.91,0.326 -26.273,10.473c-4.364,10.148 0.326,21.911 10.472,26.274z"/>
  <path fill="#ffffff" id="svg_3" d="m748.934,428.852l0,-115.167c0,-11.046 -8.953,-20 -20,-20l-342.745,0c-11.046,0 -20,8.954 -20,20s8.954,20 20,20l245.586,0l-245.586,105.583l-292.106,-125.583l292.106,-125.583l131.116,56.369c10.148,4.362 21.91,-0.327 26.273,-10.475c4.361,-10.147 -0.328,-21.911 -10.475,-26.273l-139.015,-59.766c-5.043,-2.168 -10.756,-2.168 -15.799,0l-342.744,147.354c-7.342,3.157 -12.101,10.382 -12.101,18.374s4.759,15.218 12.101,18.374l342.745,147.352c2.521,1.084 5.211,1.626 7.899,1.626s5.378,-0.542 7.899,-1.626l188.64,-81.101l0.004,138.395c-110.08,101.846 -283.009,101.846 -393.086,-0.001l0.001,-35.302c0,-11.046 -8.954,-20.001 -20,-20.001l0,0c-11.045,0 -20,8.955 -20,19.999l-0.001,43.873c0,5.373 2.163,10.521 6.001,14.283c61.922,60.689 143.796,94.112 230.541,94.112c86.746,0 168.621,-33.423 230.542,-94.11c3.838,-3.762 6.002,-8.91 6.002,-14.285l-0.004,-164.159l86.205,-37.062l0,84.799c-16.293,7.572 -27.623,24.086 -27.623,43.204c0,19.62 14.643,71.239 47.623,71.239c32.979,0 47.621,-51.619 47.621,-71.239c0.001,-19.117 -11.327,-35.63 -27.62,-43.203zm-20,69.035c-3.885,-7.633 -7.623,-19.427 -7.623,-25.831c0,-4.203 3.42,-7.623 7.623,-7.623s7.621,3.42 7.621,7.623c0,6.404 -3.739,18.198 -7.621,25.831z"/>
  <path fill="#ffffff" id="svg_4" d="m169.648,460.571c11.046,0 20,-8.954 20,-20l0,-6.655c0,-11.046 -8.954,-20 -20,-20s-20,8.954 -20,20l0,6.655c0,11.046 8.954,20 20,20z"/>
 </g>
</svg>