<svg width="24.000000000000004" height="24.000000000000004" xmlns="http://www.w3.org/2000/svg">

 <g>
  <title>background</title>
  <rect fill="none" id="canvas_background" height="402" width="582" y="-1" x="-1"/>
 </g>
 <g>
  <title>Layer 1</title>
  <path fill="#ffffff" id="svg_3" d="m12,17.6c-0.2,0 -0.5,-0.1 -0.7,-0.2l-10,-4.5c-0.3,-0.1 -0.5,-0.5 -0.5,-0.8c0,-0.4 0.2,-0.7 0.5,-0.8l2.1,-1c0.4,-0.2 0.9,-0.2 1.4,0l7.1,3.2c0.2,0.1 0.4,0.1 0.5,0l7.1,-3.2c0.4,-0.2 0.9,-0.2 1.4,0l2.1,1c0.3,0.1 0.5,0.5 0.5,0.8c0,0.4 -0.2,0.7 -0.5,0.8l-10.1,4.6c-0.4,0.1 -0.7,0.1 -0.9,0.1zm-10.1,-5.5l9.8,4.5c0.2,0.1 0.4,0.1 0.5,0l9.8,-4.5l-1.8,-0.9c-0.2,-0.1 -0.4,-0.1 -0.5,0l-7.1,3.2c-0.4,0.2 -0.9,0.2 -1.4,0l-7.1,-3.2c-0.2,-0.1 -0.4,-0.1 -0.5,0l-1.7,0.9z"/>
  <path fill="#ffffff" id="svg_5" d="m12,23.5c-0.2,0 -0.5,-0.1 -0.7,-0.1l-10,-4.6c-0.3,-0.1 -0.5,-0.5 -0.5,-0.8c0,-0.3 0.2,-0.7 0.5,-0.8l2.1,-1c0.4,-0.2 0.9,-0.2 1.4,0l7.1,3.2c0.2,0.1 0.4,0.1 0.5,0l7.1,-3.2c0.4,-0.2 0.9,-0.2 1.4,0l2.1,1c0.3,0.1 0.5,0.5 0.5,0.8c0,0.3 -0.2,0.7 -0.5,0.8l-10.1,4.6c-0.4,0 -0.7,0.1 -0.9,0.1zm-10.1,-5.6l9.8,4.5c0.2,0.1 0.4,0.1 0.5,0l9.8,-4.5l-1.8,-0.9c-0.2,-0.1 -0.4,-0.1 -0.5,0l-7.1,3.2c-0.4,0.2 -0.9,0.2 -1.4,0l-7.1,-3.2c-0.2,-0.1 -0.4,-0.1 -0.5,0l-1.7,0.9z"/>
  <path fill="#ffffff" id="svg_7" d="m12,11.7c-0.2,0 -0.5,-0.1 -0.7,-0.1l-10,-4.7c-0.4,-0.1 -0.6,-0.4 -0.6,-0.8c0,-0.3 0.2,-0.7 0.5,-0.8l10,-4.6c0.5,-0.2 1,-0.2 1.5,0l10,4.6c0.3,0.1 0.5,0.5 0.5,0.8c0,0.3 -0.2,0.7 -0.5,0.8l-10.1,4.6c-0.1,0.1 -0.4,0.2 -0.6,0.2zm-10.1,-5.6l9.8,4.5c0.2,0.1 0.4,0.1 0.5,0l9.8,-4.5l-9.8,-4.5c-0.2,-0.1 -0.5,-0.1 -0.7,0l-9.6,4.5z"/>
 </g>
</svg>