<?xml version="1.0" ?><svg id="Layer_1" style="enable-background:new 0 0 96 96;" version="1.1" viewBox="0 0 96 96" xml:space="preserve" xmlns="http://www.w3.org/2000/svg" xmlns:xlink="http://www.w3.org/1999/xlink"><path d="M18.6,1.2c-7.4-3.3-13.2,0.5-14,8.4l0,0L4.5,86.4h0.1c0.8,8,6.5,11.7,13.9,8.4L18,95l2.4-1.2l0,0l0.6-0.3l1-0.6v0l45.7-26.5  l0,0l0.3-0.2l16.6-9.7l-0.1-0.1c6.8-5,6.1-12.3-0.2-16.9l0.1-0.1l-16.1-9.4l-0.6-0.5l-0.1,0.1L22.1,3.1v0L21,2.4 M20.5,2.2l-0.1-0.1  c0,0-0.1,0-0.1,0 M65.2,32.8l-9.7,12L28.2,11.2L65.2,32.8z M18.4,90.4l-0.2,0.1c-0.3,0.1-0.5,0.3-0.7,0.4c-5.5,2.7-8.7,0.2-8.9-6  l0-0.6V11.6c0-0.4,0-0.8,0-1.1c0.4-5.9,3.8-8.2,9.3-5.2l0.4,0.2L52.9,48L18.4,90.4z M28.2,84.7l27.3-33.5l9.8,12L28.2,84.7z   M82.9,52.8c-0.3,0.2-0.6,0.5-0.9,0.7c-0.3,0.2-0.5,0.4-0.8,0.5l-1.9,1.1v0l-10.5,6.1L58,48l10.7-13.1l10.4,6.1l0,0l1.7,1  c0,0,0,0,0,0l0.1,0c0.4,0.2,0.8,0.5,1.1,0.7C86,45.6,86.8,49.5,82.9,52.8z"/></svg>